<svg id="Layer_1" data-name="Layer 1" xmlns="http://www.w3.org/2000/svg" viewBox="0 0 1289.51 768.04"><defs><style>.cls-1{fill:#fd66c3;}.cls-2{fill:#e0dcdf;}.cls-3{fill:#010101;}.cls-4{fill:#d9d9d9;}.cls-5{fill:#343434;}</style></defs><path class="cls-1" d="M298.29,91.77q.72-3.28,1.43-6.58c1.06-4.93,1.43-11.09,7.73-11.61C314.33,73,321,75,324.3,82.23c1.17,2.54,2,5.24,3,7.86,1.72,11.63,1.82,23.42,3.28,35.07-1.52,24.21.52,48.38.77,72.58.12,11,2.18,21.88,2.05,32.91-.08,6.51,3.17,9.71,10.05,9.4,11-.51,22,.33,33-1.09s21.94.73,32.82,2.42c2.32.59,4.65.09,7-.07,9.86,0,19.86,2.75,29.45-1.64,3.4-4.86,3.56-10.62,4.4-16.14,3.86-25.6,4-51.53,6.84-77.24a223.65,223.65,0,0,1,5.65-31.54c1.45-4.41,2.2-9.13,5.43-12.8,3.33-6.76,5.59-14,9.79-20.4C482.26,74.64,487.8,76,494,77.9S500,84,498.85,89.26c-.78,3.5-.42,7.25-.58,10.89.15,4.28,1.22,8.51.71,12.83-5.93,45.74-10.44,91.58-9.91,137.79-.37,4,.08,8-.28,12-3.63,20.34-2.41,40.72-.33,61.08a35.38,35.38,0,0,1-.25,10.92c-1.94,8.38-.72,16.88-.94,25.32-.48,17.75.72,35.53-.63,53.28-4.46,6.26-10.76,10.56-17.21,14.21-7.44,4.22-13.25.69-18.62-9.95-1.39-4-2.2-8.17-3.77-12.11-2.51-7.09-2.4-14.44-1.74-21.73,2.7-29.77,1.2-59.59,1.36-89.39.06-9.79-1.73-10.87-11.74-10.23-4.49.28-8.89,1.52-13.42,1.46-2-.12-4.05-.12-6.07-.11l-3.05.09c-18.93-.55-37.78,1.21-56.68,1.78-6.54.2-9.11,2.66-8.35,9.34,3.35,29.45,3.48,59.12,5.68,88.65.52,7-1.66,14-1.24,21.09-.29,6.47.1,13-.55,19.41-6.6,12.62-20.63,13.58-28.15,1.87-2.41-3.76-5.14-7.28-7.71-10.92-2.32-3.64-4.85-7.18-5.67-11.56a90.71,90.71,0,0,1-2-20.12A751.23,751.23,0,0,0,303.87,290c-.67-6.17-2.3-12.17-2.8-18.35-1.68-12.11-.91-24.41-2.93-36.49-2.33-28-2.68-56.13-4-84.2a173.21,173.21,0,0,0,.1-20.25C293.39,117.43,295.39,104.57,298.29,91.77Z" transform="translate(-11.2 -13.03)"/><path class="cls-2" d="M878,120.46c1.3,1.88,3.37,1.52,5.23,1.82-1.49,5.06-5.56,4-8.68,2.91-4.39-1.51-8.63-3.87-8.12-9.79l4.91,1.63C873.23,118.78,874.82,121.15,878,120.46Z" transform="translate(-11.2 -13.03)"/><path class="cls-1" d="M717.26,147.7l3.21-.58c3.49-.47,7.06-.64,10.07-2.8,41-11.22,83.15-17.52,124.28-28.21,3.82-1,7.63-2.08,11.59-.71,4.18,5.77,8.41,11.39,16.8,6.88,9.86-.07,19.75-.57,29.58-.08,10.36.52,18.75,4.92,24.36,14.29a13.27,13.27,0,0,1,.12,13.52c-1.71,3.08-7,2.87-11,2.24-14.56-2.24-29.07-3.19-43.27,2.12-5.31-2.8-9.15,3.33-14.16,2.35-16.47,2-32.9,4-49.2,7.19-6.79,1.31-9.8,4.55-10.45,11.79-2.3,25.44-4.69,50.89-8.59,76.16a18.49,18.49,0,0,1-.6,2.73c-1.22,3.07-.86,6.36-1.26,9.54-4,38.53-11.7,76.54-15.17,115.15-.78,8.72.84,18.1-4.17,26.26-11.46,9-15.65,8.95-25.5-.48a25.77,25.77,0,0,1-5.37-14.86c-1.43-41.65-5-83.24-3.49-125,.4-3.43,0-6.88.19-10.31-.7-20.29,2.37-40.33,4.31-60.45a69.1,69.1,0,0,0,.68-8.38c-.09-4.34-2.14-6.09-6.48-5.29-6.36,1.17-12.65,2.66-19,4.06-3.15,1.22-6.2-1.85-9.37-.18-12.78,3.08-25.82,4.63-38.32,9.55-7.55,3-16.76,2.21-25-.42-6.27-2-6.63-7.62-6.64-13.25,0-7.46,4.31-11.82,10.76-13.39,15.62-3.83,30-11.26,45.79-14.68C707.21,151.38,712.19,149.32,717.26,147.7Z" transform="translate(-11.2 -13.03)"/><path d="M484.75,466.41c1.95,28.23-.45,56.37-1.71,84.53-.12,2.81-.07,5.63-.1,8.44,1.72,7.5.44,15.12.86,22.67,0,9.28-.48,18.53-1.14,27.81-.59,8.39,1,9,8.17,4.89,9.06-5.17,17.68-11,26.35-16.83a30.09,30.09,0,0,1,19.21-5.09c5.91.38,10.44,2.71,12.44,8.42s-.31,10.36-5.17,13.88Q524.49,629,505.12,642.6c-8.82,5.57-17.32,11.62-26.89,15.94-12.08,5.45-24.91-1.1-25.73-14.53-.89-14.57-1.7-29.28.76-43.85,1.08-6.42-.25-13,1.18-19.38,1.66-19.21,5.65-38.07,6.3-57.49.46-13.76,1-27.54,1.23-41.32a28,28,0,0,0-.41-7.59c-1.27-4.92-3.25-9.87,3.36-13,6.3-3,13.21-2.38,18,2.21A9.92,9.92,0,0,1,484.75,466.41Z" transform="translate(-11.2 -13.03)"/><path class="cls-3" d="M1296.63,574.32a10.53,10.53,0,0,1-6.36,1.78c-34.82.27-69.13,5.09-103.24,11.65-4.18.8-7.8.87-10.55-2.92a7.17,7.17,0,0,1-3.26-4.4c-1.25-6.27.33-12.1,2.76-17.82,6.18-5.54,14.78-3.4,21.64-6.83,28.14-7.53,56.9-9.19,85.85-9,7,.06,13.48,1.45,16.66,8.88.87,3.73,1.1,7.37-1.71,10.51C1297.82,568.89,1297.23,571.6,1296.63,574.32Z" transform="translate(-11.2 -13.03)"/><path d="M322.1,537.39c-4.19-8.86-8.56-17.61-15-25.16-8.27-9.71-19.33-16-29.2-23.73-6.93-4-13.2-9.21-20.79-12.11-6.94-2.22-13.81-4.85-21.31-2.31-8.08,2.73-10.27,8.58-5.51,15.62,2.51,3.7,5.76,6.91,7.17,11.3,1.09,2.68.86,5.51.86,8.31q0,41.3,0,82.59c0,3.08.19,6.19-.93,9.17-.81,17.09-2.26,34.24,1.2,51.18,2.07,10.12,13.22,14.13,21.72,8.27,2.8-1.93,5-4.53,7.34-7,1.84-1.76,3.69-3.49,5.51-5.24,22.57-21.53,43.1-44.49,52.57-75.16C328.49,560.83,326.4,549,322.1,537.39Zm-22.72,18.53c-.23,2.86-.88,4.85-2.31,6.08a14.52,14.52,0,0,1-1,3.8,47.15,47.15,0,0,0-2.55,9.24c-4.25,13.53-11.44,24.8-20.11,34.94-1.76,1.33-2.92,4.73-5.53,3.17-1.91-1.13-1.67-3.95-1.68-6.21-.08-14,0-28-.05-42a11.62,11.62,0,0,1,.93-5,9.81,9.81,0,0,1-.93-4.14c-.41-12.94,1.4-25.81.94-38.74-.11-3.09.94-5,4.54-3.6A43.91,43.91,0,0,1,290,527C296.24,535.61,300.27,544.8,299.38,555.92Z" transform="translate(-11.2 -13.03)"/><path d="M637.71,630.47c-8.56-43.11-13.12-86.12,3.28-128.6,6.63-12.72,13.69-25.15,23.35-35.92,5.12-5.71,11.19-10.2,17.27-14.73,10.24-6.86,27.9-8.15,37,1.59a6,6,0,0,1,1.47,2.2c1.7,6.13-1.11,10.37-5.76,13.86a7.84,7.84,0,0,1-3,1.5c-24.93,3.35-33.89,23.12-43.42,42.25a65.68,65.68,0,0,0-4,11.07c-11.56,35.45-11.59,70.66,2,105.61a92,92,0,0,0,13.21,29.11c4.78,6.88,10.64,12.36,18.7,15.26,6.62,2.39,10.67,6.52,8.14,14.19-2.34,7.07-6.56,8.42-15.79,5.68-10-3-16.76-10.17-23.19-17.73C655.34,662,646.74,646.09,637.71,630.47Z" transform="translate(-11.2 -13.03)"/><path class="cls-4" d="M718.74,450.8c0,1.24-.06,2.48-.1,3.73-8-8.88-17.94-8.91-28.43-6.25-2.93.74-5.74,2-8.6,2.94C690.42,442.09,708.27,442.2,718.74,450.8Z" transform="translate(-11.2 -13.03)"/><path d="M717.57,655.6c-3.41-10.89-2.69-22.16-2.83-33.31-.27-21,3.42-41.82,4.36-62.78-3-10.41.49-20.72,1.2-31,.86-12.37.72-24.69,1.06-37,.13-4.5-.18-9.1,3.45-12.64,15.3-7.75,27.07-1.55,28.45,15.28,1.46,17.74-.75,35.39-2.07,53.05-1.86,16.46-6.3,32.6-6.18,49.32,0,1.62.46,3.4-1.08,4.69-2.29,14.12-2.17,28.37-2.09,42.61,0,5.87,1.12,12.28-5.69,15.31S723.08,660.42,717.57,655.6Z" transform="translate(-11.2 -13.03)"/><path d="M1037.82,681.24c-4.33-1.74-8.69-3.42-12.15-6.71-.51-2-1-4-1.54-6-.27-9.56,8.49-10.27,13.91-14.25,9-15.06,9-30.93,4.15-47.16a168.89,168.89,0,0,0-10.9-26.46,152,152,0,0,0-10.91-21.52,176.54,176.54,0,0,1-12.88-35.71c-5.25-22.27-1.68-43,11.22-62a60.66,60.66,0,0,1,15.69-13.79c9.12-5.14,18.63-7.4,29-4.1,6.44,2.06,11.56,5.54,14.06,12.11-.85,9.43-6.28,15.61-15.27,15.47-6.72-.11-10.36,3.09-13.67,8-11.67,17.35-12.91,35.61-4.48,54.51,4,9,8.77,17.64,13.14,26.46,2.11,3.62,2.64,7.76,3.82,11.68,4.09,9.9,8.57,19.65,12.19,29.72,6.22,17.36,6.62,34.9-.56,52.15C1066.15,669.11,1054.28,678.13,1037.82,681.24Z" transform="translate(-11.2 -13.03)"/><path d="M876.37,557.73c-2-11.44-7.59-21.57-12-32.1-6.17-7.76-14.19-12.58-23.6-15.54-7.52-2.37-14.92-5.15-21.48-9.79-5.85-4.13-11.86-2.84-17.54.43-4.92,2.83-8.94,6.82-12.68,11.1-12,13.78-17.69,30.53-22.6,47.67-1.22,12.45-1.33,24.85,1.79,37.09,1,1.7,1.81,3.47,2.88,5.09,15.55,23.6,37.44,36.24,64.56,22.1,13-6.76,21.86-17.53,30.29-28.91,3.38-8.47,9.08-16,10.44-25.29C878,565.63,879.83,561.68,876.37,557.73Zm-29.22,3.85c-.08,1.1-.18,2.3-.31,3.64a70.93,70.93,0,0,1-20.9,36.12c-10.67,9.89-18.21,8.19-26.36-5-4.06-6.58-7.49-13.69-8-22.43-.23-2.07-.43-3.95-.6-5.66l-2,.19c.22-1.35.77-4.2,1.47-7.47-.06-3.93.44-6.36,1.88-7.87,1-3.74,2.06-7,3-8.17,2.43-3.15,5.21-5,8.95-2,5.67,4.66,10,2.46,14.6-2s8.19-12.51,16.35-9.78c8.68,2.9,10.1,11.67,12,19.44a37,37,0,0,1,.5,6.17C848.51,559.16,848.11,560.65,847.15,561.58Z" transform="translate(-11.2 -13.03)"/><path d="M995.33,470.27c-11.32-6.74-23.05-1.6-26.49,11.81-2.64,10.29-3.07,21.12-7.37,31-6.27,17.33-10.58,35.2-14.7,53.12a3.81,3.81,0,0,1,1,3.62c-3.93,23.73-9.56,46.78-26.6,66.82-7.8-23.39-7.44-46-6-68.81a10.9,10.9,0,0,1,2.61-1.54v0c.61-13.47-1.3-27,1.06-40.46,1.38-9.8.84-19.65.53-29.47-.25-7.73-4-11.74-11.43-13.59-10.55-2.62-17.33,1.54-21.54,13.26-1.29,15.1.63,30.35-2.17,45.39-3.12,16.73.65,33.5-.08,50.26-.52,12,1.31,23.83,4.31,35.46,2.79,9.13,4.85,18.54,9.08,27.15,7.08,14.38,21.15,18.29,34.83,9.88a38.86,38.86,0,0,0,10.07-8.95,144.33,144.33,0,0,0,27.18-54c2.63-10.05,5.5-20,8.26-30.05,4.65-21.21,11-41.95,17.12-62.76,5.53-8.58,5.79-18.52,6.91-28.14C1002.46,475.71,999.12,472.53,995.33,470.27Z" transform="translate(-11.2 -13.03)"/><path d="M17.44,561.35a318,318,0,0,0,40.24-8.59q26.12-1.93,52.25-3.87c1.4-.1,2.81-.09,4.22-.07,20.86.33,25.29,7.74,16.33,27.29-35.34-.18-70.14,4.73-104.81,11-3.29.6-6.67.66-10,1C9.1,578.22,9.85,567.05,17.44,561.35Z" transform="translate(-11.2 -13.03)"/><path d="M342.78,559.63c4.24-1.45,6.21-4.4,6.43-8.89s.7-9,1.33-13.49c1-7.53.73-13.72-8.89-15.55a9.35,9.35,0,0,1-7.5-9.24c-.18-6.74,3.51-11.43,9.26-14,14.43-6.42,28.74-13.16,43.87-17.89l12.88-4c4.59-2.21,9.9-2.06,14.44-4.43,7.51-2.41,15-3.79,22.67-.53,3.77,2.37,8.43,3.2,11.61,6.63,4.53,9.88,3.52,12.47-6.72,15.94-17,5.77-34,11.68-51.12,17.13-4.88,1.32-9.18,3.26-10,9.07-.69,6.69-1.55,13.35-2.27,20-.6,5.61,2,8.13,7.79,8.31,8.23.25,16.14-1.58,24.18-2.66,8.61-1.15,16.61.6,23.18,6.81l3,8.18c-.62,4.46-4.13,6.5-7.35,8.79-8.53,3.56-17.5,4-26.56,3.76-7.64-.17-15.2.27-22.27,3.61-.6.66-1.23,1.27-1.87,1.88-5.91,13-5.73,26.8-5.12,40.61a8.28,8.28,0,0,0,5.54,7.84c17,6.18,34.15,9.37,51.73,2.58,6.57-2.54,10.81.18,14.34,5.34,3.38,7.84,4.44,15.39-2.72,21.93-8.46,4.76-17.81,3.13-26.57,2.53-17.63-1.2-35.45-2.2-52.31-8.54-6.91-4.17-13.29-8.87-16.46-16.74-5.47-15.22-3.51-31-3.75-46.68-.09-5.92-.18-11.5-4.09-16.7C336.07,566.67,337.05,562.18,342.78,559.63Z" transform="translate(-11.2 -13.03)"/><path class="cls-5" d="M615.61,75c1.65-15.53,3.51-31,4.84-46.58.47-5.46-3.15-8.14-8.51-8.19-5-.05-8,2.48-8.45,7.47a71.35,71.35,0,0,0,.22,8.39h0c-.25,4,.51,8.19-3.19,14-9.64-10.29-18.61-19.89-27.59-29.48-5-1.13-5.87-10.49-13.34-6.67.69,4.32,5.23,5.82,6.9,9.43.9,4.2,4.92,5.9,7.24,9,7.45,6.4,13.64,14.18,21.42,20.16,4.27,3.29,4.93,7.07,4.34,11.78a25.84,25.84,0,0,1-1.14,4.2c-.73-2.25-3-3.65-4.55-5.37-5.45-6-12.6-10-17.84-16.24-3.82-3.18-6.52-7.72-11.58-9.35-4.14-.38-6.2.72-3.17,4.86a66.1,66.1,0,0,0,4.92,5.42,88.31,88.31,0,0,0,7.73,10c5.45,4.9,10.12,10.77,16,15,6.11,4.45,8.91,9.77,8.86,17,.11.22.22.44.34.66a11.71,11.71,0,0,1-.44,2.75,4.61,4.61,0,0,1-1.39.88,4.72,4.72,0,0,0-1.49.56c-.64-4.31-4.09-6.47-7-9.07a44.39,44.39,0,0,1-4.28-3.23,46.26,46.26,0,0,0-5-4.88c-1-1.12-2-2.29-2.88-3.49a35.22,35.22,0,0,0-2.73-3.58c-2.94-2.79-5.3-6.31-9.52-7.47-3.48-.7-6.12-.28-3.66,4,1.34,2.34,3.64,4.12,5.5,6.15A71.9,71.9,0,0,0,573.69,83c6.93,4.75,10.69,13.43,19.52,15.82a2.93,2.93,0,0,0,.91,2.72c1.25.94,2,2.88,4.1,2.08-1.84,1.4-2.19,3.66-2.9,5.72-2,7-4,1-6.06,0a91.06,91.06,0,0,0-7.73-7.1c-4.74-3.15-8.25-7.64-12.48-11.35-2.67-2.35-5.43-5.09-9.39-2.17-.14,5.15,6.27,6.32,6.73,11.1l3.1,2.27a16.79,16.79,0,0,0,2.94,4.23c1.25,1.3,2.47,2.64,3.72,3.94,4.54,4.46,9.12,8.9,15.23,11.16,0,1.89,1.39,3.1,2.51,4.43,2.42,6.15,2.09,9-1.52,13.35-2.82-1.85-4.63-5.08-8.11-6.08h-.17c-2.77-5-8.29-7.5-11.27-12.29l-10.17-8.71c-4,1.29-3.56,3.45-1.18,6,1.67,1.78,3.29,3.6,4.93,5.4a17.26,17.26,0,0,0,5.17,7.37,15.18,15.18,0,0,0,1.84,1.34c2,1.13,3.61,2.7,5.56,3.85a3.56,3.56,0,0,0,1.85.25c1.49,6,7.13,8.7,10.89,12.89a11.68,11.68,0,0,1,1.71,2.78c.26,1.4.55,2.8.68,4.17a12.57,12.57,0,0,1-3.36,6.76c-6-5.08-11.34-10.95-16.91-16.55-3.64-2.87-5.85-7.7-11.27-8.13l-1.38,1c-2.56,5.58,4.39,5.92,5.29,9.59l4.22,3.31a24.39,24.39,0,0,1,2.25,3.09,31.84,31.84,0,0,0,2.77,3.65c4.84,4.9,9.54,9.93,14.85,14.33a29.21,29.21,0,0,1,1.75,3.22c.63,2.83,1,5.6-.39,8.08a11.15,11.15,0,0,1-2.64,2.29C583.69,182.36,579,177,573.94,172c-2.68-2.31-4.7-5.45-8.27-6.65-1.83-.15-3.17.47-3.69,2.36,2.82,5.76,7.31,10.19,11.64,14.75,5.43,5.4,11,10.68,16.29,16.22.06.13.11.27.16.4a40.09,40.09,0,0,0-.59,4.66c-.38,2.29-.86,4.42-4,3.63a15.38,15.38,0,0,1-4-2.62c-.31-.32-.63-.64-1-1a15.46,15.46,0,0,1-2.71-4,14.23,14.23,0,0,0-3.84-4.08c-3.17-2.48-5.46-6.08-9.57-7.32-4.45-.82-6.28.31-3.2,4.59,1.46,2,3.28,3.76,4.94,5.63,1.92,2.72,3.53,5.67,5.84,8.11,4.26,3.2,7.09,8.28,12.76,9.62a2.93,2.93,0,0,0,1.44-.62c.38,1.61,1.47,2.91,2.23,4.36,0,.17.09.35.13.52-1.31,3.3.38,7.12-1.81,10.73-3.4-1.73-5.39-4.95-8.32-6.95-3.62-2.16-6.3-5.41-9.45-8.13-2.67-2.31-5.44-4.91-9.35-2.11,0,4.72,5,6,6.69,9.58a35.57,35.57,0,0,0,5.65,8.4c3.69,3.08,7.08,6.67,12.12,7.53.12,1.68,1.19,3,2.24,4.26,2.39,4.79,3.78,9.54-.64,14.07-1.5-.86-2.77-2.18-4.52-2.67.15-6-6.11-7.73-8.74-11.89-2.65-3-6.3-4.38-9.91-5.77-3.73,1.46-3.45,3.59-1.07,6.13,1.66,1.77,3.25,3.59,4.87,5.39,1.91,4.78,6,7.85,9.06,11.77,1.77,1.64,3.6,3.12,6,2.9l0,0c1.7,2.56,3.56,5,5.23,7.57a1.89,1.89,0,0,0,.09.21,9.78,9.78,0,0,0-.46,2.08c-.89,6.67-3.56,5.54-7.2,1.82-2.26-2.31-4.19-5.25-7.85-5.7-4.29-.76-5.38-8.9-11.67-5.06.68,4.35,5.1,6,6.92,9.49.89,4,4.64,5.68,7,8.51,2.15,1.92,4.12,4.15,7.26,4.26.16,2.69,2.3,4.3,3.83,6.25a9.85,9.85,0,0,1,1.52,3.59q.08,2.84.21,5.67c-.1,1.18-.24,2.37-.33,3.53a1.5,1.5,0,0,1-.37,1l-.06.05c-.62.41-1.75-.53-2.53-.95-3.15-2.67-6-5.67-8.9-8.6-3.19-2.59-5.32-6.44-9.5-7.82l-4.75.67a23.9,23.9,0,0,0,2,3.37c1.35,1.7,2.88,3.25,4.34,4.86a48.63,48.63,0,0,0,7.79,9.38c3.16,3.2,6.45,6.26,9.7,9.37a9.16,9.16,0,0,1,1.54,2.3c.53,4,.58,7.89-1.43,11.66a5.35,5.35,0,0,0-2.21-.84c-7.84-3.42-10.52-12.08-17.06-16.81-4.32-.78-6.39.18-3.24,4.56a65.64,65.64,0,0,0,5,5.56,31.34,31.34,0,0,0,6,7.9c3.43,2.55,5.32,7.26,10.35,7.56,0,.08,0,.15.07.22l0,.08c-.89,3.9,1.45,8.07-.9,12-3.77-.28-5.53-3.32-8-5.36-4.43-2.84-6.6-10.45-14.16-6.63-.06,4.74,4.8,6.2,6.51,9.77,1.86,2.75,3.49,5.66,5.78,8.09,3.41,2.78,6,6.59,10.53,7.89.48,1.28.93,2.57,1.29,3.88.44,3.79.66,7.55-1.39,11.08a5.67,5.67,0,0,1-1-.73c-2.19-1.89-3.83-4.54-6.73-5.5,1.11-2.35-1.3-3.61-2.3-5.3a16.57,16.57,0,0,0-9.66-5.86c-3.72,1.33-4,3.33-1.3,6.09,1.72,1.76,3.29,3.67,4.92,5.52a36.59,36.59,0,0,0,5.78,8.68c7.11,5.09,10.62,11.44,8.4,19.77-3.68-1.62-5.78-5.05-8.62-7.67s-5.11-6.13-9.51-6.54a12.28,12.28,0,0,1-1.26,1.12c-.51,4.62,4.48,5.55,5.94,8.86.91,3.14,3.6,4.65,5.94,6.47a1.58,1.58,0,0,1,1.71,1.68c1.57,2.58,4,4.48,5.46,7.17l.71.87c.25.28.48.57.73.84.17.77.37,1.54.57,2.3.27,3.82,1.68,7.84-1.51,11-3.31-2.29-5.84-5.45-8.69-8.27-3.34-2.46-5.26-7.49-10.82-5.92-.66,5.57,6,6.68,6.9,11.29.94,2.15,2.56,3.84,4,5.66,2.24,3.19,5.55,5.21,8.44,7.69,0,0,0,0,0,.06-.52,3.35.81,7.09-1.93,10.05-2.89-.21-3.93-2.91-5.89-4.37-2.54-2.35-4.78-5.1-8.34-6.05s-6-.23-3.58,3.95c1.34,2.36,3.54,4.23,5.35,6.32,2,2.56,3.51,5.5,5.78,7.87,2.67,2.19,4.73,5.39,8.63,5.54,0,.09.07.19.11.29-2.52,3.27.8,8.28-3,11.2-3.49-1.77-5.75-5.06-8.76-7.44-2.66-2.09-5.29-5.25-9.2-2-.17,4.85,5,6,6.64,9.61a38.66,38.66,0,0,0,5.59,8.23c2.66,2.42,5.07,5.19,8.67,6.24l.06.13c0,.05,0,.1,0,.15-2.5,3.92-.84,8.74-2.08,12.94a1.77,1.77,0,0,0,0-.23c-1.16-3.42-4.12-5.42-6.36-8a16.13,16.13,0,0,0-9.54-5.68c-3.6.88-3.49,2.95-1.6,5.38,1.67,2.13,3.52,4.11,5.29,6.16,1.71,2.95,2.79,6.77,7.22,6.05a5.92,5.92,0,0,0,.07,1.26c.82,2.51,3.1,3.62,5,5.13a16.49,16.49,0,0,1,2.31,13.26,10.81,10.81,0,0,1-1.59,2.15c-1.81-3.23-4.64-5.6-7.13-8.25-2.44-3-6.19-4-9.38-5.8-4.2,1.2-3.48,3.45-1.26,6,1.61,1.84,3.25,3.66,4.88,5.49,1.45,4.58,5.54,6.57,9,9.16a4,4,0,0,0,1.79.3c.24,2.13,1.71,3.74,2.7,5.56.49,2.29,1.35,4.62,1.47,6.91,0,.37,0,.75-.06,1.12,0,.17,0,.33,0,.5a7.49,7.49,0,0,1-2.12,4.26c-2.18-1.1-3.62-3.07-5.37-4.71-3.09-2.53-5.15-6.33-9.31-7.56-4.25-.71-6.12.37-3.07,4.48,1.27,1.69,3.11,3,4.7,4.41.94.6,1.16,1.68,1.68,2.56a33.82,33.82,0,0,0,4.21,4.74c1.8,1.73,3.55,3.5,5.32,5.27a26.77,26.77,0,0,1,2.9,3.21c2.6,7.61-1.19,15.11-.4,22.7,0,.61.14,1.22.24,1.83a28.19,28.19,0,0,0-.07,12.56c-2.13-3.2-5.16-6-8.13-8.8-3.79-2.21-7-6.49-12.27-3.3.1,4.66,5,6,6.65,9.58,1.42,2.62,2.77,5.29,5.25,7.12a10.65,10.65,0,0,0,1.87,1.24,7.19,7.19,0,0,0,3.86.93c.16,2,1.56,3.55,2.57,5.23.48,1.74,1.31,3.47,2,5.2.43,3.27.87,6.53-.83,9.56a7.36,7.36,0,0,1-2.38-1.57c-2.34-2.23-4.56-4.59-6.83-6.89-3-2.54-5.88-5.23-9.79-6.35-4.22.55-3.94,3.05-2.39,5.85,1.34,2.4,3.43,4.21,5.44,6a18.55,18.55,0,0,0,4.11,2.66,19.92,19.92,0,0,1,3.14,1.65l1.24,1.43c1.49,1.33,3.1,2.57,4.56,3.93.58.73,1.14,1.48,1.66,2.26a26.69,26.69,0,0,1,2.44,4.38,17.64,17.64,0,0,1-.17,9.32,12.85,12.85,0,0,1-1.41,2c-1.75-.46-3.06-1.91-4.89-2.25h-.33l-4.19-5.62L562.94,639c-7.41,2.87-.7,5.35.21,8l9,7.49c0,2.41,1.62,4,3.12,5.7,2.08,2.17,4.47,4,6.38,6.37a19.83,19.83,0,0,1,1.13,2.32c.22,3,.45,6,.76,8.92.19,1.7-.25,2.65-1.11,3.17a4,4,0,0,1-1.31-.51,64.66,64.66,0,0,1-7.31-6.93c-3.24-2.82-5.7-6.55-9.77-8.42-4.16-.43-6.22.74-3.72,5.09a25,25,0,0,0,4.42,5q3.79,3.56,7.38,7.31c3.65,3.77,7.64,7.21,11.1,11.18a18.63,18.63,0,0,1,1.25,3.76v10.46c-.06.35-.11.71-.17,1.06-4.82-3.52-8.39-6.75-11.26-10.75-2.77-2.88-4.14-7.26-8.74-8.17-3.56-.73-6-.14-3.59,4,1.34,2.34,3.56,4.17,5.38,6.22,2,2.49,3.45,5.39,5.69,7.71,1.66,2,3.83,3.36,5.6,5.19,1.69,1.55,3.18,3.33,5.32,4.31l.64.1a29.49,29.49,0,0,0,1.66,3.56c1.36,4.09,2.21,8.17,0,12.21a7.71,7.71,0,0,0-1.29-2.27,77.16,77.16,0,0,0-11.17-10.2c-2.7-2.79-5.44-5.54-8.9-7.42a2,2,0,0,0-2.13.41c-2.4,2-2.16,4.23-.48,6.55a12.37,12.37,0,0,1,5.15,5.06,50.88,50.88,0,0,0,5.79,8.24c4.8,3.21,7.44,9.36,13.7,10.55.34.69.64,1.39.91,2.09.32,3,1.26,5.91,1.53,8.87a20.13,20.13,0,0,1-1.09,5.68c-3.29-2.12-5.29-6-9.25-7.32.33-3.85-4-4.52-5.5-7.11a34.09,34.09,0,0,0-9.12-6.93c-3.08.72-5.58,1.72-2.45,5.29,1.8,2,3.64,4.06,5.47,6.09l9,8.09c.31,3,1.7,4.51,4.19,4.56.38.53.76,1.06,1.09,1.62a76.38,76.38,0,0,0,13,13.3c5.43,4.34,7.83,3,9.92-3.5,5.29-16.57-.28-33,.06-49.55-1.69-7.11-1.29-14.27-.39-21.44-1.19-8.8-4.2-17.53-.4-26.44.5-1.18-.29-2.76-.84-4.05-2.76-6.4-4.56-12.68.11-19.14,1.71-2.36,0-4.85-1-7.14-2.18-4.78-3.55-10.22-.83-14.6,3.11-5,1.64-8.65-.36-13.2-1.84-4.18-4.56-9.2,0-13.22,4.11-3.61,2.87-6.58.39-10.18-3.23-4.66-5.19-10.53-1-14.68,5-4.93,3.44-8-.43-11.83-.56-.56-1.11-1.11-1.7-1.64a18.9,18.9,0,0,1-1.68-4.77c-.07-1-.16-1.95-.21-2.91a11.4,11.4,0,0,1,2-5.94l.55-.24c1.14.56,2.49.07,3.8-.19,0-1.25.46-2.65-.48-3.53a6,6,0,0,0-.45-2.1c-3.38-5.52-6.22-12.26-1.38-17.06,4.39-4.37,3.18-6.88.76-10.67-2.88-4.54-4.85-10-.73-14,4.62-4.5,2.68-7.56.34-11.74-2.54-4.51-4.4-9.76.17-14,4-3.7,2.71-6.71.43-10.35-3.22-5.14-4.59-10.41.36-15.4,3-3,2.09-6,.34-9.22-2.39-4.43-3.4-9.56-.6-13.73,3.1-4.6,2.41-8.33,0-12.48-2.26-6-2.28-11.72,2.37-16.74-2.57-8.88-5.66-17.76,0-26.65a2.21,2.21,0,0,0-.1-1.66c-4.38-12,1.9-24.5-1.64-36.66-1.43-4.91,1.88-9.77,1.86-15,0-15.44-.85-30.92,1-46.31.76-16.8.62-33.62,1.61-50.46,1-16.21,1.81-32.52,2.63-48.76.58-11.41,0-23,2.18-34.37a88.76,88.76,0,0,0,.78-11.6q.45-4.65.92-9.29l-2-.09c1.12-19.41,2.3-38.82,5.11-58.09Zm-9-50h0c0,.16,0,.32,0,.48-.11,0-.2,0-.31-.05C606.42,25.29,606.52,25.14,606.64,25Zm-6.1,66.82h.09a1.15,1.15,0,0,0-.06.17h0Z" transform="translate(-11.2 -13.03)"/></svg>